<?xml version="1.0" encoding="utf-8"?>
<!-- Generator: Adobe Illustrator 25.0.1, SVG Export Plug-In . SVG Version: 6.00 Build 0)  -->
<svg version="1.1"
	 id="svg2" xmlns:cc="http://creativecommons.org/ns#" xmlns:dc="http://purl.org/dc/elements/1.1/" xmlns:inkscape="http://www.inkscape.org/namespaces/inkscape" xmlns:rdf="http://www.w3.org/1999/02/22-rdf-syntax-ns#" xmlns:sodipodi="http://sodipodi.sourceforge.net/DTD/sodipodi-0.dtd" xmlns:svg="http://www.w3.org/2000/svg"
	 xmlns="http://www.w3.org/2000/svg" xmlns:xlink="http://www.w3.org/1999/xlink" x="0px" y="0px" viewBox="0 0 1190 265"
	 style="enable-background:new 0 0 1190 265;" xml:space="preserve">
<style type="text/css">
	.st0{opacity:0.4;}
	.st1{fill:#303030;}
	.st2{fill-rule:evenodd;clip-rule:evenodd;fill:#303030;}
	.st3{fill-rule:evenodd;clip-rule:evenodd;fill:#585858;}
	.st4{fill-rule:evenodd;clip-rule:evenodd;fill:#676767;}
	.st5{fill:#414143;}
	.st6{fill:#4267B2;}
	.st7{fill:#FFFFFF;}
</style>
<sodipodi:namedview  bordercolor="#666666" borderopacity="1.0" id="base" inkscape:current-layer="svg2" inkscape:cx="869.07228" inkscape:cy="240.33382" inkscape:document-rotation="0" inkscape:document-units="px" inkscape:guide-bbox="true" inkscape:lockguides="false" inkscape:object-nodes="true" inkscape:object-paths="false" inkscape:pageopacity="1" inkscape:pageshadow="2" inkscape:snap-intersection-paths="false" inkscape:snap-nodes="true" inkscape:snap-smooth-nodes="true" inkscape:window-height="1000" inkscape:window-maximized="1" inkscape:window-width="1920" inkscape:window-x="0" inkscape:window-y="48" inkscape:zoom="0.45192705" pagecolor="#ffffff" showgrid="false" showguides="true">
	</sodipodi:namedview>
<g id="layer1" transform="translate(0,-610.51969)" inkscape:groupmode="layer" inkscape:label="Livello 1">
</g>
<g id="g2036" transform="matrix(1.1,0,0,0.44444,101.4198,239.35202)">
	<g id="g3712" transform="matrix(1.0526,0,0,1.2857,-1.3474133,-14.324267)" class="st0">
	</g>
</g>
<g id="g3541" transform="translate(103.9798,212.56695)">
</g>
<g id="g3536" transform="translate(103.9798,212.56695)">
</g>
<g id="g4076" transform="translate(-645.88727,-411.69958)">
	<g id="g4038" transform="translate(-988.44542,730.01011)">
	</g>
</g>
<g id="text3839" transform="matrix(1.3566899,-0.00504995,0.00550305,1.2449875,1041.1846,-229.00677)">
</g>
<path class="st1" d="M689.3,90.5c3.4-4.8,2.2-11.5-2.6-14.9c0,0,0,0,0,0l-68.5-48.5c-4.8-3.4-11.5-2.2-14.9,2.6c0,0,0,0,0,0
	L500.7,174.5c-3.4,4.8-2.2,11.5,2.6,14.9c0,0,0,0,0,0l68.5,48.5c4.8,3.4,11.5,2.2,14.9-2.6c0,0,0,0,0,0L689.3,90.5z"/>
<path class="st2" d="M689.3,90.5c3.4-4.8,2.2-11.5-2.6-14.9c0,0,0,0,0,0l-68.5-48.5c-4.8-3.4-11.5-2.2-14.9,2.6c0,0,0,0,0,0
	L500.7,174.5c-3.4,4.8-2.2,11.5,2.6,14.9c0,0,0,0,0,0l68.5,48.5c4.8,3.4,11.5,2.2,14.9-2.6c0,0,0,0,0,0L689.3,90.5z M519,162.1
	L599,49l73.7,52.1l-80,113.1L519,162.1z"/>
<path class="st2" d="M689.3,90.5c3.4-4.8,2.2-11.5-2.6-14.9c0,0,0,0,0,0l-68.5-48.5c-4.8-3.4-11.5-2.2-14.9,2.6c0,0,0,0,0,0
	L500.7,174.5c-3.4,4.8-2.2,11.5,2.6,14.9c0,0,0,0,0,0l68.5,48.5c4.8,3.4,11.5,2.2,14.9-2.6c0,0,0,0,0,0L689.3,90.5z M516.4,162.5
	l82.3-116.3l76.7,54.3l-82.3,116.3L516.4,162.5z"/>
<path class="st3" d="M651.5,71.6c0.7-0.8,0.5-2.1-0.3-2.7c0,0-0.1-0.1-0.1-0.1l-15.8-11.2c-0.9-0.6-2.2-0.4-2.8,0.5
	c-0.6,0.9-0.4,2.2,0.5,2.8l15.8,11.2c0.8,0.7,2.1,0.5,2.7-0.3C651.5,71.7,651.5,71.7,651.5,71.6L651.5,71.6z M550.9,193.2
	c-4.5-3.2-10.7-2.2-14,2.3c-3.2,4.5-2.2,10.7,2.3,14c4.5,3.2,10.7,2.2,14-2.3c0,0,0.1-0.1,0.1-0.1c3.2-4.5,2.2-10.7-2.2-14
	c0,0,0,0,0,0L550.9,193.2z"/>
<path class="st4" d="M651.5,71.6c0.7-0.8,0.5-2.1-0.3-2.7c0,0-0.1-0.1-0.1-0.1l-15.8-11.2c-0.9-0.6-2.2-0.4-2.8,0.5
	c-0.6,0.9-0.4,2.2,0.5,2.8l15.8,11.2c0.8,0.7,2.1,0.5,2.7-0.3C651.5,71.7,651.5,71.7,651.5,71.6L651.5,71.6z M550.5,193.7
	c-4.1-3-9.9-2-12.9,2.1c-3,4.1-2,9.9,2.1,12.9s9.9,2,12.9-2.1c0,0,0.1-0.1,0.1-0.1C555.6,202.3,554.6,196.6,550.5,193.7L550.5,193.7
	z"/>
<path class="st5" d="M647.8,61c-0.7,1-2.1,1.3-3.2,0.5c-1-0.7-1.3-2.1-0.5-3.2s2.1-1.3,3.2-0.5C648.3,58.6,648.5,60,647.8,61z"/>
<path class="st6" d="M597.8,47.2l76.7,54.3l-82.3,116.2l-76.7-54.3L597.8,47.2z"/>
<path class="st7" d="M603.6,125.3c0.8-1.2,1.9-0.8,2.4-0.5c0.5,0.4,3.5,2.5,3.5,2.5l3.8-5.3l-4.8-3.4c-5.3-3.8-9.3-0.7-11.1,1.9
	l-2.6,3.6l-3.1-2.2l-3.9,5.5l3.1,2.2c-5,7.1-11.1,15.6-11.1,15.6l6.6,4.7c0,0,6.1-8.6,11.1-15.6l4.4,3.1l4.5-5.3l-5-3.5L603.6,125.3
	z"/>
</svg>
